<svg width="89" height="38" viewBox="0 0 89 38" fill="none" xmlns="http://www.w3.org/2000/svg">
<g clip-path="url(#clip0_73_3299)">
<rect width="89" height="20" rx="10" fill="white"/>
<rect x="38" y="33" width="16" height="4" fill="#9E9CFF"/>
<rect x="34" y="33" width="4" height="4" fill="#CCFF00"/>
<rect x="35" y="28" width="1" height="5" fill="#9E9CFF"/>
<rect x="41" y="37" width="1" height="1" fill="#9E9CFF"/>
<rect x="52" y="37" width="1" height="1" fill="#9E9CFF"/>
<rect x="33" y="28" width="1" height="5" fill="#9E9CFF"/>
<rect x="38" y="37" width="1" height="1" fill="#9E9CFF"/>
<rect x="49" y="37" width="1" height="1" fill="#9E9CFF"/>
<path d="M16.0894 14H13.2934L13.3654 13.436H14.3374L14.3734 13.388L14.7574 10.46H10.4494L10.0774 13.292L10.0894 13.34L11.1934 13.604L11.1454 14H8.32536L8.39736 13.436H9.40536L9.42936 13.388L10.2454 7.208L10.2214 7.16L9.10536 6.896L9.15336 6.5H11.9614L11.8894 7.064H10.9174L10.8934 7.112L10.5214 9.932H14.8294L15.1894 7.208L15.1654 7.16L14.0614 6.896L14.1094 6.5H16.9174L16.8454 7.064H15.8494L15.8374 7.112L15.0214 13.292L15.0334 13.34L16.1374 13.604L16.0894 14ZM17.9804 12.08C17.9684 12.212 17.9564 12.296 17.9564 12.416C17.9564 13.1 19.0724 13.7 19.3244 13.7C19.4924 13.7 21.0044 12.632 21.5684 12.224L21.6884 12.344C21.0524 13.292 19.8044 14.12 19.1924 14.12C18.4604 14.12 17.3204 13.46 17.3204 12.38C17.3204 10.436 18.9044 8.432 20.4764 8.432C21.1484 8.432 21.9884 8.876 21.9884 9.44C21.9884 10.124 21.7244 10.196 17.9804 12.08ZM17.9804 11.708H18.1004C20.5604 10.436 21.3884 9.908 21.3884 9.62C21.3884 9.224 20.6564 8.816 20.2124 8.816C19.9004 8.816 19.5524 9.02 19.3244 9.248C18.8564 9.716 18.2324 10.736 17.9804 11.708ZM25.0002 13.04C24.6642 13.496 24.0402 14.12 23.5962 14.12C23.5122 14.12 22.7202 14 22.7562 13.892L24.6162 6.956L24.6042 6.908L23.4642 6.728V6.38L25.4802 5.9C25.4802 5.9 23.4282 13.34 23.4162 13.412L23.5242 13.556L24.9402 12.98L25.0002 13.04ZM28.0002 13.04C27.6642 13.496 27.0402 14.12 26.5962 14.12C26.5122 14.12 25.7202 14 25.7562 13.892L27.6162 6.956L27.6042 6.908L26.4642 6.728V6.38L28.4802 5.9C28.4802 5.9 26.4282 13.34 26.4162 13.412L26.5242 13.556L27.9402 12.98L28.0002 13.04ZM34.0362 10.328C34.0362 11.54 33.0042 14.108 31.1562 14.108C30.0162 14.108 28.8882 13.208 28.8882 12.224C28.8882 11.036 29.9082 8.432 31.7442 8.432C32.8722 8.432 34.0362 9.368 34.0362 10.328ZM33.3882 10.4C33.3882 9.5 32.2482 8.972 31.3722 8.972C30.8202 8.972 30.0882 9.908 29.7282 11.12C29.5962 11.648 29.5242 12.152 29.5242 12.272C29.5242 13.148 30.6642 13.568 31.5402 13.568C32.0802 13.568 32.8242 12.692 33.1842 11.48C33.3402 10.988 33.3882 10.496 33.3882 10.4ZM40.13 10.328C40.13 11.54 39.098 14.108 37.25 14.108C36.11 14.108 34.982 13.208 34.982 12.224C34.982 11.036 36.002 8.432 37.838 8.432C38.966 8.432 40.13 9.368 40.13 10.328ZM39.482 10.4C39.482 9.5 38.342 8.972 37.466 8.972C36.914 8.972 36.182 9.908 35.822 11.12C35.69 11.648 35.618 12.152 35.618 12.272C35.618 13.148 36.758 13.568 37.634 13.568C38.174 13.568 38.918 12.692 39.278 11.48C39.434 10.988 39.482 10.496 39.482 10.4ZM46.2237 10.328C46.2237 11.54 45.1917 14.108 43.3437 14.108C42.2037 14.108 41.0757 13.208 41.0757 12.224C41.0757 11.036 42.0957 8.432 43.9317 8.432C45.0597 8.432 46.2237 9.368 46.2237 10.328ZM45.5757 10.4C45.5757 9.5 44.4357 8.972 43.5597 8.972C43.0077 8.972 42.2757 9.908 41.9157 11.12C41.7837 11.648 41.7117 12.152 41.7117 12.272C41.7117 13.148 42.8517 13.568 43.7277 13.568C44.2677 13.568 45.0117 12.692 45.3717 11.48C45.5277 10.988 45.5757 10.496 45.5757 10.4ZM52.3175 10.328C52.3175 11.54 51.2855 14.108 49.4375 14.108C48.2975 14.108 47.1695 13.208 47.1695 12.224C47.1695 11.036 48.1895 8.432 50.0255 8.432C51.1535 8.432 52.3175 9.368 52.3175 10.328ZM51.6695 10.4C51.6695 9.5 50.5295 8.972 49.6535 8.972C49.1015 8.972 48.3695 9.908 48.0095 11.12C47.8775 11.648 47.8055 12.152 47.8055 12.272C47.8055 13.148 48.9455 13.568 49.8215 13.568C50.3615 13.568 51.1055 12.692 51.4655 11.48C51.6215 10.988 51.6695 10.496 51.6695 10.4ZM58.4112 10.328C58.4112 11.54 57.3792 14.108 55.5312 14.108C54.3912 14.108 53.2632 13.208 53.2632 12.224C53.2632 11.036 54.2832 8.432 56.1192 8.432C57.2472 8.432 58.4112 9.368 58.4112 10.328ZM57.7632 10.4C57.7632 9.5 56.6232 8.972 55.7472 8.972C55.1952 8.972 54.4632 9.908 54.1032 11.12C53.9712 11.648 53.8992 12.152 53.8992 12.272C53.8992 13.148 55.0392 13.568 55.9152 13.568C56.4552 13.568 57.1992 12.692 57.5592 11.48C57.7152 10.988 57.7632 10.496 57.7632 10.4ZM64.505 10.328C64.505 11.54 63.473 14.108 61.625 14.108C60.485 14.108 59.357 13.208 59.357 12.224C59.357 11.036 60.377 8.432 62.213 8.432C63.341 8.432 64.505 9.368 64.505 10.328ZM63.857 10.4C63.857 9.5 62.717 8.972 61.841 8.972C61.289 8.972 60.557 9.908 60.197 11.12C60.065 11.648 59.993 12.152 59.993 12.272C59.993 13.148 61.133 13.568 62.009 13.568C62.549 13.568 63.293 12.692 63.653 11.48C63.809 10.988 63.857 10.496 63.857 10.4ZM70.5987 10.328C70.5987 11.54 69.5667 14.108 67.7187 14.108C66.5787 14.108 65.4507 13.208 65.4507 12.224C65.4507 11.036 66.4707 8.432 68.3067 8.432C69.4347 8.432 70.5987 9.368 70.5987 10.328ZM69.9507 10.4C69.9507 9.5 68.8107 8.972 67.9347 8.972C67.3827 8.972 66.6507 9.908 66.2907 11.12C66.1587 11.648 66.0867 12.152 66.0867 12.272C66.0867 13.148 67.2267 13.568 68.1027 13.568C68.6427 13.568 69.3867 12.692 69.7467 11.48C69.9027 10.988 69.9507 10.496 69.9507 10.4ZM76.6925 10.328C76.6925 11.54 75.6605 14.108 73.8125 14.108C72.6725 14.108 71.5445 13.208 71.5445 12.224C71.5445 11.036 72.5645 8.432 74.4005 8.432C75.5285 8.432 76.6925 9.368 76.6925 10.328ZM76.0445 10.4C76.0445 9.5 74.9045 8.972 74.0285 8.972C73.4765 8.972 72.7445 9.908 72.3845 11.12C72.2525 11.648 72.1805 12.152 72.1805 12.272C72.1805 13.148 73.3205 13.568 74.1965 13.568C74.7365 13.568 75.4805 12.692 75.8405 11.48C75.9965 10.988 76.0445 10.496 76.0445 10.4ZM79.4142 7.22L78.5022 11.744C78.4782 11.852 78.3222 11.84 78.3342 11.732L78.6462 7.172C78.6942 6.548 78.7662 6.38 78.9942 6.38H79.0302C79.3902 6.38 79.5702 6.392 79.4142 7.22ZM78.8022 13.484C78.7902 13.964 78.6822 14.18 78.2142 14.18C77.7342 14.18 77.5782 13.964 77.5902 13.484C77.5902 13.028 77.7342 12.824 78.2142 12.824C78.6822 12.824 78.8022 13.028 78.8022 13.484Z" fill="black"/>
<path d="M44 29L50.9282 17H37.0718L44 29Z" fill="white"/>
</g>
<defs>
<clipPath id="clip0_73_3299">
<rect width="89" height="38" fill="white"/>
</clipPath>
</defs>
</svg>
