<svg width="489" height="500" viewBox="0 0 489 500" fill="none" xmlns="http://www.w3.org/2000/svg">
<circle cx="224.75" cy="266.75" r="148.75" fill="#002991"/>
<circle cx="133.5" cy="395.5" r="20" fill="#9E9CFF"/>
<circle cx="173.5" cy="395.5" r="20" fill="#9E9CFF"/>
<circle cx="333.5" cy="395.5" r="20" fill="#00AD07"/>
<circle cx="361" cy="368" r="20" fill="#00AD07"/>
<circle cx="411" cy="308" r="20" fill="#00AD07"/>
<circle cx="386" cy="338" r="20" fill="#00AD07"/>
<circle cx="436" cy="278" r="20" fill="#00AD07"/>
<rect x="79" y="176" width="107" height="80" fill="#9E9CFF"/>
<path d="M233.5 216L186 256H170V176H186L233.5 216Z" fill="#9E9CFF"/>
<rect x="93.5" y="195.5" width="17.5" height="17.5" fill="white"/>
<rect x="128.5" y="195.5" width="17.5" height="17.5" fill="white"/>
<path d="M32 216L78.378 256H94V176H78.378L32 216Z" fill="#9E9CFF"/>
<path d="M78 176.5L105.5 129L133 176.5H78Z" fill="#00AD07"/>
<path d="M133 176.5L159.25 129L185.5 176.5H133Z" fill="#00AD07"/>
</svg>
