<svg width="1486" height="916" viewBox="0 0 1486 916" fill="none" xmlns="http://www.w3.org/2000/svg">
<rect x="75.6848" y="91.6027" width="9" height="9" fill="white"/>
<rect x="521.548" y="91.6027" width="9" height="9" fill="white"/>
<rect x="954.425" y="91.6027" width="9" height="9" fill="white"/>
<rect x="125.466" y="243.11" width="9" height="9" fill="white"/>
<rect x="571.329" y="243.11" width="9" height="9" fill="white"/>
<rect x="1004.21" y="243.11" width="9" height="9" fill="white"/>
<rect x="125.466" y="126.233" width="9" height="9" fill="white"/>
<rect x="571.329" y="126.233" width="9" height="9" fill="white"/>
<rect x="1004.21" y="126.233" width="9" height="9" fill="white"/>
<rect x="187.151" y="180.342" width="9" height="9" fill="white"/>
<rect x="633.014" y="180.342" width="9" height="9" fill="white"/>
<rect x="1064.81" y="180.342" width="9" height="9" fill="white"/>
<rect x="187.151" y="86.1918" width="9" height="9" fill="white"/>
<rect x="633.014" y="86.1918" width="9" height="9" fill="white"/>
<rect x="1064.81" y="86.1918" width="9" height="9" fill="white"/>
<rect x="272.644" y="174.932" width="9" height="9" fill="white"/>
<rect x="718.507" y="174.932" width="9" height="9" fill="white"/>
<rect x="1151.38" y="174.932" width="9" height="9" fill="white"/>
<rect x="252.082" y="318.863" width="9" height="9" fill="white"/>
<rect x="697.945" y="318.863" width="9" height="9" fill="white"/>
<rect x="1130.82" y="318.863" width="9" height="9" fill="white"/>
<rect x="1042.08" y="313.452" width="9" height="9" fill="white"/>
<rect x="892.74" y="548.288" width="9" height="9" fill="white"/>
<rect x="203.384" y="253.932" width="9" height="9" fill="white"/>
<rect x="649.247" y="253.932" width="9" height="9" fill="white"/>
<rect x="1082.12" y="253.932" width="9" height="9" fill="white"/>
<rect x="114.644" y="356.74" width="9" height="9" fill="white"/>
<rect x="560.507" y="356.74" width="9" height="9" fill="white"/>
<rect x="993.384" y="356.74" width="9" height="9" fill="white"/>
<rect x="64.863" y="282.068" width="9" height="9" fill="white"/>
<rect x="510.726" y="282.068" width="9" height="9" fill="white"/>
<rect x="397.096" y="131.644" width="9" height="9" fill="white"/>
<rect x="943.603" y="282.068" width="9" height="9" fill="white"/>
<rect x="19.4109" y="191.164" width="9" height="9" fill="white"/>
<rect x="465.274" y="191.164" width="9" height="9" fill="white"/>
<rect x="449.041" y="260.425" width="9" height="9" fill="white"/>
<rect x="898.151" y="191.164" width="9" height="9" fill="white"/>
<rect x="881.918" y="264.753" width="9" height="9" fill="white"/>
<rect x="859.192" y="111.082" width="9" height="9" fill="white"/>
<rect x="103.822" y="195.493" width="9" height="9" fill="white"/>
<rect x="550.767" y="195.493" width="9" height="9" fill="white"/>
<rect x="982.562" y="195.493" width="9" height="9" fill="white"/>
<rect x="397.096" y="195.493" width="9" height="9" fill="white"/>
<rect x="454.452" y="105.671" width="9" height="9" fill="white"/>
<rect x="842.959" y="195.493" width="9" height="9" fill="white"/>
<rect x="1275.84" y="195.493" width="9" height="9" fill="white"/>
<rect x="1451.15" y="195.493" width="9" height="9" fill="white"/>
<rect x="359.219" y="282.068" width="9" height="9" fill="white"/>
<rect x="805.082" y="282.068" width="9" height="9" fill="white"/>
<rect x="1237.96" y="282.068" width="9" height="9" fill="white"/>
<rect x="1413.27" y="282.068" width="9" height="9" fill="white"/>
<rect x="293.206" y="233.37" width="9" height="9" fill="white"/>
<rect x="739.068" y="233.37" width="9" height="9" fill="white"/>
<rect x="1171.95" y="233.37" width="9" height="9" fill="white"/>
<rect x="1347.26" y="233.37" width="9" height="9" fill="white"/>
<rect x="1414.36" y="101.342" width="9" height="9" fill="white"/>
<rect x="1341.85" y="59.137" width="9" height="9" fill="white"/>
<rect x="1460.89" y="41.8219" width="9" height="9" fill="white"/>
<rect x="304.027" y="131.644" width="9" height="9" fill="white"/>
<rect x="749.89" y="131.644" width="9" height="9" fill="white"/>
<rect x="1182.77" y="131.644" width="9" height="9" fill="white"/>
<rect x="1358.08" y="131.644" width="9" height="9" fill="white"/>
<rect x="359.219" y="41.8219" width="9" height="9" fill="white"/>
<rect x="805.082" y="41.8219" width="9" height="9" fill="white"/>
<rect x="1237.96" y="41.8219" width="9" height="9" fill="white"/>
<rect x="262.904" y="59.137" width="9" height="9" fill="white"/>
<rect x="708.767" y="59.137" width="9" height="9" fill="white"/>
<rect x="1141.64" y="59.137" width="9" height="9" fill="white"/>
<rect x="353.808" y="427.082" width="9" height="9" fill="white"/>
<rect x="799.671" y="427.082" width="9" height="9" fill="white"/>
<rect x="287.794" y="291.808" width="9" height="9" fill="white"/>
<rect x="734.74" y="291.808" width="9" height="9" fill="white"/>
<rect x="1166.53" y="291.808" width="9" height="9" fill="white"/>
<rect x="1341.85" y="291.808" width="9" height="9" fill="white"/>
<rect x="1290.99" y="120.822" width="9" height="9" fill="white"/>
<rect x="386.274" y="351.329" width="9" height="9" fill="white"/>
<rect x="832.137" y="351.329" width="9" height="9" fill="white"/>
<rect x="1265.01" y="351.329" width="9" height="9" fill="white"/>
<rect x="1440.33" y="351.329" width="9" height="9" fill="white"/>
<rect x="348.397" y="232.288" width="9" height="9" fill="white"/>
<rect x="760.712" y="351.329" width="9" height="9" fill="white"/>
<rect x="1193.59" y="351.329" width="9" height="9" fill="white"/>
<rect x="287.794" y="367.562" width="9" height="9" fill="white"/>
<rect x="734.74" y="367.562" width="9" height="9" fill="white"/>
<rect x="1166.53" y="367.562" width="9" height="9" fill="white"/>
<rect x="1341.85" y="367.562" width="9" height="9" fill="white"/>
<rect x="225.027" y="367.562" width="9" height="9" fill="white"/>
<rect x="670.89" y="367.562" width="9" height="9" fill="white"/>
<rect x="1103.77" y="367.562" width="9" height="9" fill="white"/>
<rect x="681.712" y="417.342" width="9" height="9" fill="white"/>
<rect x="639.507" y="437.904" width="9" height="9" fill="white"/>
<rect x="532.37" y="574.26" width="9" height="9" fill="white"/>
<rect x="965.247" y="574.26" width="9" height="9" fill="white"/>
<rect x="565.918" y="483.356" width="9" height="9" fill="white"/>
<rect x="998.794" y="483.356" width="9" height="9" fill="white"/>
<rect x="30.2329" y="394.616" width="9" height="9" fill="white"/>
<rect x="476.096" y="394.616" width="9" height="9" fill="white"/>
<rect x="908.973" y="394.616" width="9" height="9" fill="white"/>
<rect x="500.986" y="463.877" width="9" height="9" fill="white"/>
<rect x="932.781" y="463.877" width="9" height="9" fill="white"/>
<rect x="638.425" y="568.849" width="9" height="9" fill="white"/>
<rect x="1070.22" y="568.849" width="9" height="9" fill="white"/>
<rect x="638.425" y="503.918" width="9" height="9" fill="white"/>
<rect x="749.89" y="559.11" width="9" height="9" fill="white"/>
<rect x="744.479" y="483.356" width="9" height="9" fill="white"/>
<rect x="697.945" y="568.849" width="9" height="9" fill="white"/>
<rect x="1130.82" y="568.849" width="9" height="9" fill="white"/>
<rect x="837.548" y="513.657" width="9" height="9" fill="white"/>
<rect x="192.562" y="31" width="9" height="9" fill="white"/>
<rect x="14" y="36.4109" width="9" height="9" fill="white"/>
<rect x="639.507" y="31" width="9" height="9" fill="white"/>
<rect x="1071.3" y="31" width="9" height="9" fill="white"/>
<rect x="511" y="617" width="475" height="51" fill="#023CD1"/>
<rect x="511" y="537" width="475" height="49" fill="#023CD1"/>
<rect x="511" y="454" width="475" height="48" fill="#023CD1"/>
<rect x="511" y="372" width="475" height="48" fill="#023CD1"/>
<rect x="511" y="291" width="475" height="48" fill="#023CD1"/>
<rect x="616" y="211" width="271" height="49" fill="#023CD1"/>
<rect x="724" y="130" width="54" height="50" fill="#023CD1"/>
<rect x="504" y="581" width="492" height="41" fill="#065000"/>
<rect x="504" y="499" width="492" height="41" fill="#065000"/>
<rect x="504" y="417" width="492" height="41" fill="#065000"/>
<rect x="504" y="335" width="492" height="41" fill="#065000"/>
<rect x="561" y="253" width="380" height="41" fill="#065000"/>
<rect x="671" y="171" width="161" height="41" fill="#065000"/>
<path d="M671 592H626C609.431 592 596 605.431 596 622V663H671V592Z" fill="#439900"/>
<rect width="62" height="36" rx="18" transform="matrix(-1 0 0 1 705 586)" fill="#00C4F0"/>
<path d="M695 584L685 567L675 584H695Z" fill="#439900"/>
<path d="M675 584L665.5 567L656 584H675Z" fill="#439900"/>
<path d="M596 663L586.5 646L577 663H596Z" fill="#5CD200"/>
<path d="M596 646L586.5 629L577 646H596Z" fill="#5CD200"/>
<path d="M596 629L586.5 612L577 629H596Z" fill="#5CD200"/>
<path d="M596 612L586.5 595L577 612H596Z" fill="#5CD200"/>
<rect width="7" height="7" transform="matrix(-1 0 0 1 691 596)" fill="white"/>
<rect width="7" height="7" transform="matrix(-1 0 0 1 677 596)" fill="white"/>
<circle cx="8" cy="8" r="8" transform="matrix(-1 0 0 1 679 647)" fill="#00C4F0"/>
<circle cx="8" cy="8" r="8" transform="matrix(-1 0 0 1 663 647)" fill="#00C4F0"/>
<rect width="40" height="59" transform="matrix(-1 0 0 1 754 447)" fill="#A2DB00"/>
<rect width="7" height="76" transform="matrix(-1 0 0 1 708 424)" fill="#0F6FFF"/>
<rect width="6" height="6" transform="matrix(-1 0 0 1 714 500)" fill="#0F6FFF"/>
<rect width="6" height="6" transform="matrix(-1 0 0 1 701 418)" fill="#0F6FFF"/>
<circle cx="8" cy="8" r="8" transform="matrix(-1 0 0 1 762 490)" fill="#01CA2D"/>
<circle cx="8" cy="8" r="8" transform="matrix(-1 0 0 1 746 490)" fill="#01CA2D"/>
<path fill-rule="evenodd" clip-rule="evenodd" d="M772 409L751.93 428.93L732 409V429V454H772V429V409Z" fill="#01CA2D"/>
<rect width="7" height="7" transform="matrix(-1 0 0 1 765 436)" fill="white"/>
<rect width="7" height="7" transform="matrix(-1 0 0 1 751 436)" fill="white"/>
<circle cx="1099.5" cy="606.5" r="59.5" fill="#002991"/>
<circle cx="1063" cy="658" r="8" fill="#9E9CFF"/>
<circle cx="1079" cy="658" r="8" fill="#9E9CFF"/>
<circle cx="1143" cy="658" r="8" fill="#00AD07"/>
<circle cx="1154" cy="647" r="8" fill="#00AD07"/>
<circle cx="1174" cy="623" r="8" fill="#00AD07"/>
<circle cx="1164" cy="635" r="8" fill="#00AD07"/>
<circle cx="1184" cy="611" r="8" fill="#00AD07"/>
<rect x="1041" y="570" width="43" height="32" fill="#9E9CFF"/>
<path d="M1041 570L1052 551L1063 570H1041Z" fill="#00AD07"/>
<path d="M1041 602L1022 586L1041 570L1041 602Z" fill="#9E9CFF"/>
<path d="M1041 570H1048.5V602H1041L1022 586L1041 570Z" fill="#9E9CFF"/>
<path d="M1084.36 570H1077V602H1084.36L1103 586L1084.36 570Z" fill="#9E9CFF"/>
<path d="M1084 602L1103 586L1084 570L1084 602Z" fill="#9E9CFF"/>
<path d="M1063 570L1073.5 551L1084 570H1063Z" fill="#00AD07"/>
<rect x="1047" y="578" width="7" height="7" fill="white"/>
<rect x="1061" y="578" width="7" height="7" fill="white"/>
<rect x="840" y="405" width="123" height="22" fill="#00AD07"/>
<rect x="862" y="427" width="236" height="22" transform="rotate(90 862 427)" fill="#00AD07"/>
<rect x="571" y="526" width="138" height="22" transform="rotate(90 571 526)" fill="#657EFF"/>
<rect x="805" y="528" width="138" height="22" transform="rotate(90 805 528)" fill="#657EFF"/>
<rect x="539" y="506" width="276" height="22" fill="#657EFF"/>
<rect x="963" y="427" width="236" height="22" transform="rotate(90 963 427)" fill="#00AD07"/>
<path d="M774 462H805V496C805 501.523 800.523 506 795 506H784C778.477 506 774 501.523 774 496V462Z" fill="#6CF6FF"/>
<rect x="805" y="469" width="9" height="5" fill="#6CF6FF"/>
<rect x="819" y="474" width="16" height="5" transform="rotate(90 819 474)" fill="#6CF6FF"/>
<rect x="805" y="490" width="9" height="5" fill="#6CF6FF"/>
<rect x="753" y="117" width="3" height="6" fill="#8921DC"/>
<rect x="747" y="117" width="3" height="6" fill="#8921DC"/>
<rect x="738" y="81" width="25" height="37" fill="#00C2FF"/>
<circle cx="738.5" cy="99.5" r="18.5" fill="#00C2FF"/>
<rect x="736" y="68" width="3" height="7" transform="rotate(90 736 68)" fill="#8921DC"/>
<rect x="736" y="64" width="18" height="17" fill="#00C2FF"/>
<rect x="741" y="67" width="4" height="4" fill="white"/>
<path d="M763 81L797 99.5L763 118L763 81Z" fill="#4F80FF"/>
<rect x="547" y="698" width="420" height="43" fill="#9E9CFF"/>
<rect x="254" y="663" width="977" height="35" fill="#038B00"/>
<rect x="265" y="838" width="156" height="35" transform="rotate(-90 265 838)" fill="#038B00"/>
<rect x="352" y="663" width="239" height="35" transform="rotate(-90 352 663)" fill="#023CD1"/>
<rect x="1116" y="663" width="239" height="35" transform="rotate(-90 1116 663)" fill="#023CD1"/>
<rect x="986" y="663" width="339" height="35" transform="rotate(-90 986 663)" fill="#8921DC"/>
<rect x="476" y="663" width="339" height="35" transform="rotate(-90 476 663)" fill="#8921DC"/>
<rect x="1185" y="838" width="155" height="35" transform="rotate(-90 1185 838)" fill="#038B00"/>
<rect x="497" y="733" width="520" height="44" fill="#7DA900"/>
<rect x="447" y="768" width="620" height="48" fill="#9E9CFF"/>
<rect x="397" y="803" width="720" height="35" fill="#7DA900"/>
<path d="M999 697H1012C1034.09 697 1052 714.909 1052 737V803H999V697Z" fill="#00C2FF"/>
<path d="M974 675H1024V686C1024 697.046 1015.05 706 1004 706H994C982.954 706 974 697.046 974 686V675Z" fill="#C3D400"/>
<rect x="985" y="683" width="7" height="7" fill="white"/>
<rect x="999" y="683" width="7" height="7" fill="white"/>
<rect x="1052" y="797" width="6" height="6" fill="#002991"/>
<rect x="1058" y="803" width="6" height="6" fill="#002991"/>
<rect x="1058" y="821" width="6" height="6" fill="#002991"/>
<rect x="1064" y="809" width="6" height="6" fill="#002991"/>
<rect x="1064" y="815" width="6" height="6" fill="#002991"/>
<path fill-rule="evenodd" clip-rule="evenodd" d="M974 650L999.175 675V675H974V650Z" fill="#C3D400"/>
<path fill-rule="evenodd" clip-rule="evenodd" d="M1024 650L999 675L999 675H1024V650Z" fill="#C3D400"/>
<circle cx="999" cy="795" r="8" fill="#C3D400"/>
<circle cx="1015" cy="795" r="8" fill="#C3D400"/>
<rect x="683" y="226" width="137" height="137" fill="#C3D400"/>
<rect x="701" y="244" width="101" height="101" fill="#0937AC"/>
<path fill-rule="evenodd" clip-rule="evenodd" d="M732 260L752 280L752 280L752 280L772 260V280V305H732V280V260Z" fill="#9E9CFF"/>
<rect width="7" height="7" transform="matrix(-1 0 0 1 762 287)" fill="white"/>
<rect width="7" height="7" transform="matrix(-1 0 0 1 748 287)" fill="white"/>
<path fill-rule="evenodd" clip-rule="evenodd" d="M745 326L769 326L780 320L769 314H745V326Z" fill="#C8D1FF"/>
<rect x="747" y="310" width="20" height="5" transform="rotate(90 747 310)" fill="#00C2FF"/>
<rect x="747" y="316" width="8" height="23" transform="rotate(90 747 316)" fill="#00C2FF"/>
<path fill-rule="evenodd" clip-rule="evenodd" d="M927 336H878V342H878.5C861.103 342 847 356.103 847 373.5C847 390.897 861.103 405 878.5 405H926.5C943.897 405 958 390.897 958 373.5C958 356.103 943.897 342 926.5 342H927V336Z" fill="#9E9CFF"/>
<path d="M919 381L905 373.5L919 366L919 381Z" fill="#8921DC"/>
<rect x="890" y="366" width="15" height="15" fill="#8921DC"/>
<rect x="894" y="371" width="4" height="4" fill="white"/>
<rect x="923" y="607" width="56" height="45" transform="rotate(90 923 607)" fill="#00A3FF"/>
<rect width="6" height="6" transform="matrix(-1 0 0 1 903 601)" fill="#CCFF00"/>
<rect width="6" height="6" transform="matrix(-1 0 0 1 911 601)" fill="#CCFF00"/>
<rect width="6" height="6" transform="matrix(-1 0 0 1 895 601)" fill="#CCFF00"/>
<rect width="6" height="6" transform="matrix(-1 0 0 1 895 595)" fill="#CCFF00"/>
<rect width="6" height="6" transform="matrix(-1 0 0 1 903 595)" fill="#CCFF00"/>
<rect width="6" height="6" transform="matrix(-1 0 0 1 903 589)" fill="#CCFF00"/>
<rect width="6" height="6" transform="matrix(-1 0 0 1 903 583)" fill="#CCFF00"/>
<rect width="6" height="6" transform="matrix(-1 0 0 1 903 577)" fill="#CCFF00"/>
<rect width="6" height="6" transform="matrix(-1 0 0 1 911 595)" fill="#CCFF00"/>
<rect width="6" height="6" transform="matrix(-1 0 0 1 911 589)" fill="#CCFF00"/>
<rect width="6" height="6" transform="matrix(-1 0 0 1 917 583)" fill="#CCFF00"/>
<rect width="6" height="6" transform="matrix(-1 0 0 1 889 589)" fill="#CCFF00"/>
<rect width="6" height="6" transform="matrix(-1 0 0 1 889 583)" fill="#CCFF00"/>
<rect width="6" height="6" transform="matrix(-1 0 0 1 883 577)" fill="#CCFF00"/>
<rect width="6" height="6" transform="matrix(-1 0 0 1 883 571)" fill="#CCFF00"/>
<rect width="6" height="6" transform="matrix(-1 0 0 1 877 565)" fill="#CCFF00"/>
<rect width="6" height="6" transform="matrix(-1 0 0 1 871 571)" fill="#CCFF00"/>
<rect width="6" height="6" transform="matrix(-1 0 0 1 865 583)" fill="#CCFF00"/>
<rect width="6" height="6" transform="matrix(-1 0 0 1 923 577)" fill="#CCFF00"/>
<rect width="6" height="6" transform="matrix(-1 0 0 1 929 583)" fill="#CCFF00"/>
<rect width="6" height="6" transform="matrix(-1 0 0 1 929 589)" fill="#CCFF00"/>
<rect width="6" height="6" transform="matrix(-1 0 0 1 935 595)" fill="#CCFF00"/>
<rect width="6" height="6" transform="matrix(-1 0 0 1 941 601)" fill="#CCFF00"/>
<rect width="6" height="6" transform="matrix(-1 0 0 1 947 595)" fill="#CCFF00"/>
<rect width="6" height="6" transform="matrix(-1 0 0 1 953 601)" fill="#CCFF00"/>
<rect width="6" height="6" transform="matrix(-1 0 0 1 953 607)" fill="#CCFF00"/>
<rect width="6" height="6" transform="matrix(-1 0 0 1 953 613)" fill="#CCFF00"/>
<rect width="6" height="6" transform="matrix(-1 0 0 1 865 589)" fill="#CCFF00"/>
<rect width="6" height="6" transform="matrix(-1 0 0 1 859 595)" fill="#CCFF00"/>
<rect width="6" height="6" transform="matrix(-1 0 0 1 909 571)" fill="#CCFF00"/>
<rect width="6" height="6" transform="matrix(-1 0 0 1 909 565)" fill="#CCFF00"/>
<rect width="6" height="6" transform="matrix(-1 0 0 1 903 559)" fill="#CCFF00"/>
<rect width="6" height="6" transform="matrix(-1 0 0 1 903 553)" fill="#CCFF00"/>
<rect width="6" height="6" transform="matrix(-1 0 0 1 903 547)" fill="#CCFF00"/>
<rect width="6" height="6" transform="matrix(-1 0 0 1 897 541)" fill="#CCFF00"/>
<rect width="6" height="6" transform="matrix(-1 0 0 1 891 535)" fill="#CCFF00"/>
<rect width="6" height="6" transform="matrix(-1 0 0 1 885 529)" fill="#CCFF00"/>
<rect width="6" height="6" transform="matrix(-1 0 0 1 885 523)" fill="#CCFF00"/>
<rect width="6" height="6" transform="matrix(-1 0 0 1 879 517)" fill="#CCFF00"/>
<rect width="6" height="6" transform="matrix(-1 0 0 1 873 523)" fill="#CCFF00"/>
<rect width="6" height="6" transform="matrix(-1 0 0 1 873 529)" fill="#CCFF00"/>
<rect width="6" height="6" transform="matrix(-1 0 0 1 915 559)" fill="#CCFF00"/>
<rect width="6" height="6" transform="matrix(-1 0 0 1 915 553)" fill="#CCFF00"/>
<rect width="6" height="6" transform="matrix(-1 0 0 1 921 547)" fill="#CCFF00"/>
<rect width="6" height="6" transform="matrix(-1 0 0 1 927 547)" fill="#CCFF00"/>
<rect width="6" height="6" transform="matrix(-1 0 0 1 933 553)" fill="#CCFF00"/>
<rect width="6" height="6" transform="matrix(-1 0 0 1 939 559)" fill="#CCFF00"/>
<rect width="6" height="6" transform="matrix(-1 0 0 1 871 577)" fill="#CCFF00"/>
<rect x="942" y="728" width="16" height="4" fill="#8921DC"/>
<rect x="938" y="728" width="4" height="4" fill="#00C2FF"/>
<rect x="939" y="723" width="1" height="5" fill="#8921DC"/>
<rect x="945" y="732" width="1" height="1" fill="#8921DC"/>
<rect x="956" y="732" width="1" height="1" fill="#8921DC"/>
<rect x="937" y="723" width="1" height="5" fill="#8921DC"/>
<rect x="942" y="732" width="1" height="1" fill="#8921DC"/>
<rect x="953" y="732" width="1" height="1" fill="#8921DC"/>
<rect x="788" y="218" width="4" height="4" fill="#6CF6FF"/>
<path d="M792 218V218C794.209 218 796 219.791 796 222V222H792V218Z" fill="#6CF6FF"/>
<path d="M808 218V218C810.209 218 812 219.791 812 222V222H808V218Z" fill="#6CF6FF"/>
<path d="M800 222V222C800 219.791 801.791 218 804 218V218L804 222L800 222Z" fill="#6CF6FF"/>
<path d="M804 222V222C804 224.209 802.209 226 800 226V226L800 222L804 222Z" fill="#6CF6FF"/>
<path d="M796 226V226C793.791 226 792 224.209 792 222V222L796 222L796 226Z" fill="#6CF6FF"/>
<path d="M812 226V226C809.791 226 808 224.209 808 222V222L812 222L812 226Z" fill="#6CF6FF"/>
<rect x="796" y="222" width="4" height="4" fill="#6CF6FF"/>
<rect x="804" y="218" width="4" height="4" fill="#6CF6FF"/>
<rect x="812" y="222" width="4" height="4" fill="#6CF6FF"/>
<circle cx="786" cy="220" r="2" fill="#01CA2D"/>
<rect x="312.465" y="441" width="525.679" height="34" transform="rotate(-37.1564 312.465 441)" fill="#7DA900"/>
<rect x="771.538" y="123" width="525.679" height="34" transform="rotate(37.16 771.538 123)" fill="#7DA900"/>
<rect x="731" y="123" width="41" height="27" fill="#7DA900"/>
<rect x="278" y="630" width="33" height="33" fill="#C3D400"/>
<rect x="271" y="640" width="7" height="23" fill="#00C2FF"/>
<rect x="311" y="640" width="7" height="23" fill="#00C2FF"/>
<rect x="265" y="657" width="6" height="6" fill="#00C2FF"/>
<rect x="318" y="657" width="6" height="6" fill="#00C2FF"/>
<circle cx="279" cy="630" r="8" fill="#657EFF"/>
<circle cx="295" cy="630" r="8" fill="#657EFF"/>
<rect x="275" y="626" width="7" height="7" fill="white"/>
<rect x="289" y="626" width="7" height="7" fill="white"/>
<rect x="254" y="610" width="6" height="6" fill="#C8D1FF"/>
</svg>
