<svg width="219" height="606" viewBox="0 0 219 606" fill="none" xmlns="http://www.w3.org/2000/svg">
<g clip-path="url(#clip0_48_2365)">
<rect y="147" width="219" height="39" fill="#00AD07"/>
<rect x="39" y="166" width="440" height="39" transform="rotate(90 39 166)" fill="#00AD07"/>
<rect x="219" y="166" width="440" height="39" transform="rotate(90 219 166)" fill="#00AD07"/>
<rect x="12.4634" y="34.6829" width="197.634" height="112.171" rx="56.0854" fill="#9E9CFF"/>
<rect x="68" y="24" width="87" height="27" fill="#9E9CFF"/>
<rect x="147.781" y="506.512" width="99.7073" height="80.1219" transform="rotate(90 147.781 506.512)" fill="#00A3FF"/>
<rect width="10.6829" height="10.6829" transform="matrix(-1 0 0 1 112.171 495.829)" fill="#CCFF00"/>
<rect width="10.6829" height="10.6829" transform="matrix(-1 0 0 1 126.415 495.829)" fill="#CCFF00"/>
<rect width="10.6829" height="10.6829" transform="matrix(-1 0 0 1 97.9269 495.829)" fill="#CCFF00"/>
<rect width="10.6829" height="10.6829" transform="matrix(-1 0 0 1 97.9269 485.146)" fill="#CCFF00"/>
<rect width="10.6829" height="10.6829" transform="matrix(-1 0 0 1 112.171 485.146)" fill="#CCFF00"/>
<rect width="10.6829" height="10.6829" transform="matrix(-1 0 0 1 112.171 474.463)" fill="#CCFF00"/>
<rect width="10.6829" height="10.6829" transform="matrix(-1 0 0 1 112.171 463.781)" fill="#CCFF00"/>
<rect width="10.6829" height="10.6829" transform="matrix(-1 0 0 1 112.171 453.098)" fill="#CCFF00"/>
<rect width="10.6829" height="10.6829" transform="matrix(-1 0 0 1 126.415 485.146)" fill="#CCFF00"/>
<rect width="10.6829" height="10.6829" transform="matrix(-1 0 0 1 126.415 474.463)" fill="#CCFF00"/>
<rect width="10.6829" height="10.6829" transform="matrix(-1 0 0 1 137.098 463.781)" fill="#CCFF00"/>
<rect width="10.6829" height="10.6829" transform="matrix(-1 0 0 1 87.2439 474.463)" fill="#CCFF00"/>
<rect width="10.6829" height="10.6829" transform="matrix(-1 0 0 1 87.2439 463.781)" fill="#CCFF00"/>
<rect width="10.6829" height="10.6829" transform="matrix(-1 0 0 1 76.561 453.098)" fill="#CCFF00"/>
<rect width="10.6829" height="10.6829" transform="matrix(-1 0 0 1 76.561 442.415)" fill="#CCFF00"/>
<rect width="10.6829" height="10.6829" transform="matrix(-1 0 0 1 65.8781 431.732)" fill="#CCFF00"/>
<rect width="10.6829" height="10.6829" transform="matrix(-1 0 0 1 55.1952 442.415)" fill="#CCFF00"/>
<rect width="10.6829" height="10.6829" transform="matrix(-1 0 0 1 44.5122 463.781)" fill="#CCFF00"/>
<rect width="10.6829" height="10.6829" transform="matrix(-1 0 0 1 147.781 453.098)" fill="#CCFF00"/>
<rect width="10.6829" height="10.6829" transform="matrix(-1 0 0 1 158.463 463.781)" fill="#CCFF00"/>
<rect width="10.6829" height="10.6829" transform="matrix(-1 0 0 1 158.463 474.463)" fill="#CCFF00"/>
<rect width="10.6829" height="10.6829" transform="matrix(-1 0 0 1 169.146 485.146)" fill="#CCFF00"/>
<rect width="10.6829" height="10.6829" transform="matrix(-1 0 0 1 179.829 495.829)" fill="#CCFF00"/>
<rect width="10.6829" height="10.6829" transform="matrix(-1 0 0 1 190.512 485.146)" fill="#CCFF00"/>
<rect width="10.6829" height="10.6829" transform="matrix(-1 0 0 1 201.195 495.829)" fill="#CCFF00"/>
<rect width="10.6829" height="10.6829" transform="matrix(-1 0 0 1 201.195 506.512)" fill="#CCFF00"/>
<rect width="10.6829" height="10.6829" transform="matrix(-1 0 0 1 201.195 517.195)" fill="#CCFF00"/>
<rect width="10.6829" height="10.6829" transform="matrix(-1 0 0 1 44.5122 474.463)" fill="#CCFF00"/>
<rect width="10.6829" height="10.6829" transform="matrix(-1 0 0 1 33.8293 485.146)" fill="#CCFF00"/>
<rect width="10.6829" height="10.6829" transform="matrix(-1 0 0 1 122.854 442.415)" fill="#CCFF00"/>
<rect width="10.6829" height="10.6829" transform="matrix(-1 0 0 1 122.854 431.732)" fill="#CCFF00"/>
<rect width="10.6829" height="10.6829" transform="matrix(-1 0 0 1 112.171 421.049)" fill="#CCFF00"/>
<rect width="10.6829" height="10.6829" transform="matrix(-1 0 0 1 112.171 410.366)" fill="#CCFF00"/>
<rect width="10.6829" height="10.6829" transform="matrix(-1 0 0 1 112.171 399.683)" fill="#CCFF00"/>
<rect width="10.6829" height="10.6829" transform="matrix(-1 0 0 1 101.488 389)" fill="#CCFF00"/>
<rect width="10.6829" height="10.6829" transform="matrix(-1 0 0 1 90.8049 378.317)" fill="#CCFF00"/>
<rect width="10.6829" height="10.6829" transform="matrix(-1 0 0 1 80.1219 367.634)" fill="#CCFF00"/>
<rect width="10.6829" height="10.6829" transform="matrix(-1 0 0 1 80.1219 356.951)" fill="#CCFF00"/>
<rect width="10.6829" height="10.6829" transform="matrix(-1 0 0 1 69.4391 346.268)" fill="#CCFF00"/>
<rect width="10.6829" height="10.6829" transform="matrix(-1 0 0 1 58.7561 356.951)" fill="#CCFF00"/>
<rect width="10.6829" height="10.6829" transform="matrix(-1 0 0 1 58.7561 367.634)" fill="#CCFF00"/>
<rect width="10.6829" height="10.6829" transform="matrix(-1 0 0 1 133.537 421.049)" fill="#CCFF00"/>
<rect width="10.6829" height="10.6829" transform="matrix(-1 0 0 1 133.537 410.366)" fill="#CCFF00"/>
<rect width="10.6829" height="10.6829" transform="matrix(-1 0 0 1 144.219 399.683)" fill="#CCFF00"/>
<rect width="10.6829" height="10.6829" transform="matrix(-1 0 0 1 154.902 399.683)" fill="#CCFF00"/>
<rect width="10.6829" height="10.6829" transform="matrix(-1 0 0 1 165.585 410.366)" fill="#CCFF00"/>
<rect width="10.6829" height="10.6829" transform="matrix(-1 0 0 1 176.268 421.049)" fill="#CCFF00"/>
<rect width="10.6829" height="10.6829" transform="matrix(-1 0 0 1 55.1952 453.098)" fill="#CCFF00"/>
</g>
<defs>
<clipPath id="clip0_48_2365">
<rect width="219" height="606" fill="white"/>
</clipPath>
</defs>
</svg>
