<svg width="1445" height="613" viewBox="0 0 1445 613" fill="none" xmlns="http://www.w3.org/2000/svg">
<rect x="104" y="91" width="10" height="9" fill="white"/>
<rect x="516" y="91" width="10" height="9" fill="white"/>
<rect x="916" y="91" width="10" height="9" fill="white"/>
<rect x="150" y="231" width="9" height="9" fill="white"/>
<rect x="562" y="231" width="9" height="9" fill="white"/>
<rect x="962" y="231" width="9" height="9" fill="white"/>
<rect x="150" y="123" width="9" height="9" fill="white"/>
<rect x="562" y="123" width="9" height="9" fill="white"/>
<rect x="962" y="123" width="9" height="9" fill="white"/>
<rect x="207" y="173" width="8.1" height="9" fill="white"/>
<rect x="619" y="173" width="9" height="9" fill="white"/>
<rect x="1018" y="173" width="9" height="9" fill="white"/>
<rect x="207" y="86" width="8.1" height="9" fill="white"/>
<rect x="619" y="86" width="9" height="9" fill="white"/>
<rect x="1018" y="86" width="9" height="9" fill="white"/>
<rect x="286" y="168" width="8.1" height="9" fill="white"/>
<rect x="698" y="168" width="9" height="9" fill="white"/>
<rect x="1098" y="168" width="8.1" height="9" fill="white"/>
<rect x="267" y="301" width="9" height="9" fill="white"/>
<rect x="679" y="301" width="9" height="9" fill="white"/>
<rect x="1079" y="301" width="9" height="9" fill="white"/>
<rect x="997" y="296" width="9" height="9" fill="white"/>
<rect x="859" y="513" width="9" height="9" fill="white"/>
<rect x="222" y="241" width="9" height="9" fill="white"/>
<rect x="634" y="241" width="9" height="9" fill="white"/>
<rect x="1034" y="241" width="9" height="9" fill="white"/>
<rect x="140" y="336" width="9" height="9" fill="white"/>
<rect x="552" y="336" width="9" height="9" fill="white"/>
<rect x="952" y="336" width="9" height="9" fill="white"/>
<rect x="94" y="267" width="10" height="9" fill="white"/>
<rect x="506" y="267" width="10" height="9" fill="white"/>
<rect x="401" y="128" width="10" height="9" fill="white"/>
<rect x="906" y="267" width="10" height="9" fill="white"/>
<rect x="52" y="183" width="10" height="9" fill="white"/>
<rect x="464" y="183" width="10" height="9" fill="white"/>
<rect x="449" y="247" width="10" height="9" fill="white"/>
<rect x="864" y="183" width="10" height="9" fill="white"/>
<rect x="849" y="251" width="10" height="9" fill="white"/>
<rect x="828" y="109" width="10" height="9" fill="white"/>
<rect x="130" y="187" width="9" height="9" fill="white"/>
<rect x="543" y="187" width="8.1" height="9" fill="white"/>
<rect x="942" y="187" width="9" height="9" fill="white"/>
<rect x="401" y="187" width="9" height="9" fill="white"/>
<rect x="454" y="104" width="9" height="9" fill="white"/>
<rect x="813" y="187" width="9" height="9" fill="white"/>
<rect x="1213" y="187" width="9" height="9" fill="white"/>
<rect x="1375" y="187" width="9" height="9" fill="white"/>
<rect x="366" y="267" width="10" height="9" fill="white"/>
<rect x="778" y="267" width="10" height="9" fill="white"/>
<rect x="1178" y="267" width="9" height="9" fill="white"/>
<rect x="1340" y="267" width="9" height="9" fill="white"/>
<rect x="305" y="222" width="10" height="9" fill="white"/>
<rect x="717" y="222" width="10" height="9" fill="white"/>
<rect x="1117" y="222" width="10" height="9" fill="white"/>
<rect x="1279" y="222" width="10" height="9" fill="white"/>
<rect x="1341" y="100" width="10" height="9" fill="white"/>
<rect x="1274" y="61" width="10" height="9" fill="white"/>
<rect x="1384" y="45" width="10" height="9" fill="white"/>
<rect x="315" y="128" width="9" height="9" fill="white"/>
<rect x="727" y="128" width="9" height="9" fill="white"/>
<rect x="1127" y="128" width="9" height="9" fill="white"/>
<rect x="1289" y="128" width="9" height="9" fill="white"/>
<rect x="366" y="45" width="9" height="9" fill="white"/>
<rect x="778" y="45" width="9" height="9" fill="white"/>
<rect x="1178" y="45" width="8.1" height="9" fill="white"/>
<rect x="277" y="61" width="9" height="9" fill="white"/>
<rect x="689" y="61" width="9" height="9" fill="white"/>
<rect x="1089" y="61" width="9" height="9" fill="white"/>
<rect x="361" y="401" width="9" height="9" fill="white"/>
<rect x="773" y="401" width="9" height="9" fill="white"/>
<rect x="1173" y="401" width="9" height="9" fill="white"/>
<rect x="1335" y="401" width="9" height="9" fill="white"/>
<rect x="1389" y="425" width="9" height="9" fill="white"/>
<rect x="300" y="276" width="9" height="9" fill="white"/>
<rect x="713" y="276" width="8.1" height="9" fill="white"/>
<rect x="1112" y="276" width="9" height="9" fill="white"/>
<rect x="1274" y="276" width="9" height="9" fill="white"/>
<rect x="1227" y="118" width="9" height="9" fill="white"/>
<rect x="391" y="331" width="9" height="9" fill="white"/>
<rect x="803" y="331" width="9" height="9" fill="white"/>
<rect x="1203" y="331" width="9" height="9" fill="white"/>
<rect x="1365" y="331" width="9" height="9" fill="white"/>
<rect x="356" y="221" width="8.1" height="9" fill="white"/>
<rect x="737" y="331" width="9" height="9" fill="white"/>
<rect x="1137" y="331" width="8.1" height="9" fill="white"/>
<rect x="1235" y="401" width="8.1" height="9" fill="white"/>
<rect x="300" y="346" width="10" height="9" fill="white"/>
<rect x="713" y="346" width="9" height="9" fill="white"/>
<rect x="1112" y="346" width="10" height="9" fill="white"/>
<rect x="1274" y="346" width="10" height="9" fill="white"/>
<rect x="242" y="346" width="9" height="9" fill="white"/>
<rect x="654" y="346" width="10" height="9" fill="white"/>
<rect x="1054" y="346" width="9" height="9" fill="white"/>
<rect x="251" y="392" width="10" height="9" fill="white"/>
<rect x="664" y="392" width="10" height="9" fill="white"/>
<rect x="1063" y="392" width="10" height="9" fill="white"/>
<rect x="212" y="411" width="9" height="9" fill="white"/>
<rect x="625" y="411" width="8.1" height="9" fill="white"/>
<rect x="1024" y="411" width="9" height="9" fill="white"/>
<rect x="114" y="537" width="8.1" height="9" fill="white"/>
<rect x="48" y="513" width="8.1" height="9" fill="white"/>
<rect x="526" y="537" width="9" height="9" fill="white"/>
<rect x="926" y="537" width="8.1" height="9" fill="white"/>
<rect x="145" y="453" width="9" height="9" fill="white"/>
<rect x="557" y="453" width="9" height="9" fill="white"/>
<rect x="957" y="453" width="9" height="9" fill="white"/>
<rect x="62" y="371" width="9" height="9" fill="white"/>
<rect x="474" y="371" width="9" height="9" fill="white"/>
<rect x="431" y="430" width="9" height="9" fill="white"/>
<rect x="874" y="371" width="9" height="9" fill="white"/>
<rect x="84" y="435" width="10" height="9" fill="white"/>
<rect x="497" y="435" width="9" height="9" fill="white"/>
<rect x="896" y="435" width="10" height="9" fill="white"/>
<rect x="211" y="532" width="9" height="9" fill="white"/>
<rect x="624" y="532" width="8.1" height="9" fill="white"/>
<rect x="1023" y="532" width="9" height="9" fill="white"/>
<rect x="211" y="472" width="10" height="9" fill="white"/>
<rect x="624" y="472" width="9" height="9" fill="white"/>
<rect x="1023" y="472" width="10" height="9" fill="white"/>
<rect x="315" y="523" width="10" height="9" fill="white"/>
<rect x="727" y="523" width="10" height="9" fill="white"/>
<rect x="1127" y="523" width="10" height="9" fill="white"/>
<rect x="1289" y="523" width="10" height="9" fill="white"/>
<rect x="310" y="453" width="9" height="9" fill="white"/>
<rect x="722" y="453" width="9" height="9" fill="white"/>
<rect x="1122" y="453" width="9" height="9" fill="white"/>
<rect x="1284" y="453" width="9" height="9" fill="white"/>
<rect x="267" y="532" width="9" height="9" fill="white"/>
<rect x="679" y="532" width="9" height="9" fill="white"/>
<rect x="1079" y="532" width="9" height="9" fill="white"/>
<rect x="396" y="481" width="9" height="9" fill="white"/>
<rect x="808" y="481" width="9" height="9" fill="white"/>
<rect x="1208" y="481" width="9" height="9" fill="white"/>
<rect x="1370" y="481" width="9" height="9" fill="white"/>
<rect x="212" y="35" width="9" height="9" fill="white"/>
<rect x="47" y="40" width="9" height="9" fill="white"/>
<rect x="625" y="35" width="8.1" height="9" fill="white"/>
<rect x="1024" y="35" width="9" height="9" fill="white"/>
</svg>
