<svg width="424" height="880" viewBox="0 0 424 880" fill="none" xmlns="http://www.w3.org/2000/svg">
<circle cx="192.75" cy="680.75" r="148.75" fill="#002991"/>
<circle cx="101.5" cy="809.5" r="20" fill="#9E9CFF"/>
<circle cx="141.5" cy="809.5" r="20" fill="#9E9CFF"/>
<circle cx="301.5" cy="809.5" r="20" fill="#00AD07"/>
<circle cx="329" cy="782" r="20" fill="#00AD07"/>
<circle cx="379" cy="722" r="20" fill="#00AD07"/>
<circle cx="354" cy="752" r="20" fill="#00AD07"/>
<circle cx="404" cy="692" r="20" fill="#00AD07"/>
<rect x="47" y="590" width="107" height="80" fill="#9E9CFF"/>
<path d="M201.5 630L154 670H138V590H154L201.5 630Z" fill="#9E9CFF"/>
<rect x="61.5" y="609.5" width="17.5" height="17.5" fill="white"/>
<rect x="96.5" y="609.5" width="17.5" height="17.5" fill="white"/>
<path d="M0 630L46.378 670H62V590H46.378L0 630Z" fill="#9E9CFF"/>
<path d="M46 590.5L73.5 543L101 590.5H46Z" fill="#00AD07"/>
<path d="M101 590.5L127.25 543L153.5 590.5H101Z" fill="#00AD07"/>
<rect width="100" height="147.5" transform="matrix(-1 0 0 1 235.5 119)" fill="#A2DB00"/>
<rect width="17.5" height="190" transform="matrix(-1 0 0 1 120.5 61.5)" fill="#0F6FFF"/>
<rect width="15" height="15" transform="matrix(-1 0 0 1 135.5 251.5)" fill="#0F6FFF"/>
<rect width="15" height="15" transform="matrix(-1 0 0 1 103 46.5)" fill="#0F6FFF"/>
<path fill-rule="evenodd" clip-rule="evenodd" d="M280.5 24L230.15 73.9997V74H280.5V24H280.5Z" fill="#01CA2D"/>
<path fill-rule="evenodd" clip-rule="evenodd" d="M180.5 24L230.5 73.9997L230.5 73.9995V74H180.5V24H180.5Z" fill="#01CA2D"/>
<circle cx="20" cy="20" r="20" transform="matrix(-1 0 0 1 255.5 226.5)" fill="#01CA2D"/>
<circle cx="20" cy="20" r="20" transform="matrix(-1 0 0 1 215.5 226.5)" fill="#01CA2D"/>
<rect width="100" height="62.5" transform="matrix(-1 0 0 1 280.5 74)" fill="#01CA2D"/>
<rect width="17.5" height="17.5" transform="matrix(-1 0 0 1 263 91.5)" fill="white"/>
<rect width="17.5" height="17.5" transform="matrix(-1 0 0 1 228 91.5)" fill="white"/>
<path d="M124.5 266.5H187C225.66 266.5 257 297.84 257 336.5V531.5H124.5V266.5Z" fill="#00C2FF"/>
<path d="M62 211.5H187V239C187 266.614 164.614 289 137 289H112C84.3858 289 62 266.614 62 239V211.5Z" fill="#7DA900"/>
<rect x="89.5" y="231.5" width="17.5" height="17.5" fill="white"/>
<rect x="124.5" y="231.5" width="17.5" height="17.5" fill="white"/>
<rect x="257" y="516.5" width="15" height="15" fill="#002991"/>
<rect x="272" y="457" width="15" height="15" fill="#002991"/>
<rect x="272" y="502" width="15" height="15" fill="#002991"/>
<rect x="287" y="472" width="15" height="15" fill="#002991"/>
<rect x="287" y="487" width="15" height="15" fill="#002991"/>
<path fill-rule="evenodd" clip-rule="evenodd" d="M62 149L124.938 211.5V211.5H62V149Z" fill="#7DA900"/>
<path fill-rule="evenodd" clip-rule="evenodd" d="M187 149L124.5 211.5V211.5H187V149Z" fill="#7DA900"/>
<circle cx="124.5" cy="511.5" r="20" fill="#7DA900"/>
<circle cx="164.5" cy="511.5" r="20" fill="#7DA900"/>
</svg>
